<?xml version="1.0" encoding="utf-8"?>
<!-- Generator: Adobe Illustrator 24.0.0, SVG Export Plug-In . SVG Version: 6.00 Build 0)  -->
<svg version="1.1" id="图层_1" xmlns="http://www.w3.org/2000/svg" xmlns:xlink="http://www.w3.org/1999/xlink" x="0px" y="0px"
	 viewBox="0 0 325.1 136.2" style="enable-background:new 0 0 325.1 136.2;" xml:space="preserve">
<style type="text/css">
	.st0{fill:#EE6F2E;}
	.st1{clip-path:url(#SVGID_2_);}
	.st2{fill:#FFFFFF;}
	.st3{fill:#010101;}
	.st4{fill:#E6E7E9;}
	.st5{fill:#05E3FC;}
	.st6{fill:#E7E7E7;}
	.st7{fill:#FCFCFC;}
	.st8{fill:#E6E7E8;}
	.st9{fill:#FFFFFF;stroke:#231815;stroke-width:0.37;stroke-miterlimit:10;}
</style>
<title>矢量智能对象</title>
<path class="st0" d="M167.7,109V99h1.6l6.2,7.9l6.2-7.9h1.6v10h-1.5v-8.1l-6.3,8.1l-6.3-8.1v8.1H167.7z"/>
<path class="st0" d="M197.4,109h-8.8c-1.9,0.1-2.8-0.8-2.8-2.8v-4.5c0-1.9,0.9-2.8,2.8-2.8h8.8c1.9-0.1,2.8,0.8,2.8,2.8v4.5
	C200.3,108.1,199.3,109,197.4,109z M187.3,101.4v5.1c0,0.8,0.6,1.5,1.4,1.5c0,0,0,0,0,0h8.4c0.8,0.1,1.5-0.5,1.5-1.3v-5.3
	c0-0.8-0.6-1.5-1.4-1.5c0,0,0,0,0,0h-8.4c-0.8,0-1.5,0.6-1.5,1.4c0,0,0,0,0,0L187.3,101.4L187.3,101.4z"/>
<path class="st0" d="M202.8,109V99h2.4l10.5,8.8v-8.9h1.4v10h-2.4l-10.5-8.8v8.8L202.8,109z"/>
<path class="st0" d="M220.8,109V99h1.5v10H220.8z"/>
<path class="st0" d="M225.6,99.9v-1h14.3v1h-6.4v9.1H232v-9.1H225.6z"/>
<path class="st0" d="M253.7,109h-8.8c-1.9,0.1-2.8-0.8-2.8-2.8v-4.5c0-1.9,0.9-2.8,2.8-2.8h8.8c1.9-0.1,2.8,0.8,2.8,2.8v4.5
	C256.5,108.1,255.6,109,253.7,109z M243.6,101.4v5.1c0,0.8,0.6,1.5,1.4,1.5c0,0,0,0,0,0h8.4c0.8,0.1,1.5-0.5,1.5-1.3v-5.3
	c0.1-0.8-0.5-1.5-1.3-1.5c0,0,0,0,0,0h-8.5c-0.8-0.1-1.5,0.6-1.5,1.4c0,0,0,0,0,0L243.6,101.4L243.6,101.4z"/>
<path class="st0" d="M259.5,109v-7.2h1.5v1.7h9.8c1-0.1,1.5-0.7,1.6-1.8c0.1-0.9-0.6-1.7-1.4-1.7c0,0,0,0,0,0h-11.5v-1h11.9
	c1.6,0.1,2.5,1,2.6,2.8c0.1,1.4-1,2.6-2.4,2.7c0,0,0,0,0,0h-0.7l3,4.5h-1.8l-3-4.5H261v4.5L259.5,109z"/>
<path class="st0" d="M279.5,109l-3-10h1.7l2.4,7.8l3.4-7.8h1.7l3.3,7.8l2.4-7.8h1.7l-3,10h-1.7l-3.5-8.3l-3.5,8.3H279.5z"/>
<path class="st0" d="M302.9,98.9l6.4,10h-1.5l-2.3-3.5h-6.9l-2.2,3.5h-1.5l6.4-10H302.9z M299.3,104.4h5.6l-2.8-4.4L299.3,104.4z"/>
<path class="st0" d="M326.7,98.9l-7.1,5.5v4.5h-1.5v-4.5l-7.1-5.5h2.1l5.8,4.4l5.7-4.5H326.7z"/>
<rect x="191.4" y="29.5" class="st0" width="48.8" height="6.8"/>
<rect x="200.6" y="24.9" class="st0" width="6.9" height="17.6"/>
<rect x="203.1" y="24.9" class="st0" width="6.9" height="17.6"/>
<rect x="223.8" y="24.9" class="st0" width="6.9" height="17.6"/>
<polygon class="st0" points="311,32.9 304.1,32.9 302.3,24.9 309.2,24.9 "/>
<rect x="304.1" y="32.9" class="st0" width="6.9" height="49.2"/>
<rect x="212.3" y="48.9" class="st0" width="6.9" height="32.9"/>
<rect x="196.1" y="62" class="st0" width="38.7" height="6.8"/>
<rect x="290.8" y="31.6" class="st0" width="34.3" height="7"/>
<rect x="290.8" y="47.9" class="st0" width="34.3" height="7"/>
<rect x="290.8" y="64.2" class="st0" width="34.3" height="7"/>
<path class="st0" d="M287.4,76.5V38.3h-6.9v41.5c0,4.2,3.4,7.6,7.6,7.6h37v-7h-33.8C289.2,80.5,287.4,78.7,287.4,76.5z"/>
<rect x="252.4" y="80.5" class="st0" width="22" height="7"/>
<rect x="252.4" y="67.2" class="st0" width="22" height="7"/>
<path class="st0" d="M284.1,25h7.9c0,0-3.8,20.8-15.8,27v-9.5C276.2,42.5,281.7,39,284.1,25z"/>
<polygon class="st0" points="266,42.3 274.6,42.3 259.6,68.9 252.4,67.2 "/>
<rect x="252.3" y="45.3" class="st0" width="16.2" height="7"/>
<polygon class="st0" points="263.1,25.2 271.8,25.2 259.4,47 252.3,45.3 "/>
<path class="st0" d="M169.4,25.3v6.8c6.4,0.4,11.3,5.7,11.3,12.1v25c0,6.4-5,11.7-11.3,12.1v6.8c10.1-0.5,18-8.9,18-19V44.3
	C187.4,34.2,179.5,25.8,169.4,25.3z"/>
<path class="st0" d="M169.4,68.1v-7c0,0,11.3-2.2,11.3-11.2h6.7C187.4,57.3,181.8,66.7,169.4,68.1z"/>
<path class="st0" d="M180.6,24.9h6.8c0,15.6-7.2,23.8-18,23.8v-6.4C178.4,41,180.6,34.6,180.6,24.9z"/>
<path class="st0" d="M199.5,44.2c-4.2,0-7.6,3.4-7.6,7.6v35.7h27.3V81h-20.5V54.7c0-2.2,1.8-4,4-4h30.1V77c0,2.2-1.8,4-4,4h-5.1v6.5
	h8.3c4.2,0,7.6-3.4,7.6-7.6V44.2L199.5,44.2z"/>
<circle class="st0" cx="68.1" cy="68.1" r="68.1"/>
<g>
	<defs>
		<circle id="SVGID_1_" cx="68.1" cy="68.1" r="68.1"/>
	</defs>
	<clipPath id="SVGID_2_">
		<use xlink:href="#SVGID_1_"  style="overflow:visible;"/>
	</clipPath>
	<g class="st1">
		<path class="st2" d="M32.3,31.7c0.4-2.2,2.4-3.6,4.6-3.3c0,0,0,0,0,0c0.6,0.1,1.2,0.4,1.7,0.7c5.1,4.1,10.1,8.3,15.2,12.4
			c0.5,0.3,1,1,1.7,0.6c3.3-1.2,6.6-2,10.1-2.5c4.7-0.5,9.4,0.6,13.8,2.1c0.7,0.2,1.5,0.9,2.2,0.2c5.2-4.2,10.4-8.5,15.6-12.7
			c1.7-1.4,4.3-1.2,5.7,0.5c0,0,0,0,0,0c0.5,0.6,0.8,1.3,0.9,2.1c2.1,12,4.3,24,6.4,36c0.5,2.4,0.6,5.1,2,7.2
			c1.6,2.7,3.9,4.9,6.7,6.3c0.1,2.8-1.4,5.4-2.8,7.8c-4.6,7.5-12.7,12.1-20.8,15c3.8,3.9,7.2,8.3,9,13.6c1.1,3.4,1.2,7.5-1,10.6
			c-1.3,2.1-3.5,3.4-5.7,4.4c0.3,3.4,0.8,6.8,0.9,10.3c2.2,1,3.8,2.9,4.3,5.2c-0.5,0.4-1,0.9-1.7,0.8H72.8c-0.6-1.1-1-2.3-1.6-3.3
			c-1.4-2.3-5.5-2-6.4,0.6c-0.5,1.1-0.8,2.9-2.4,2.7H33.5c0-0.4,0-0.9,0-1.3c0.5-1.2,0.9-2.6,2.1-3.4c0.8-0.5,1.5-1.1,2.2-1.7
			c0.1-3.3,0.5-6.5,1-9.7c-3.1-1.3-6.2-3.6-7.3-7c-0.9-3.6-0.5-7.4,1.1-10.8c2-4.1,4.8-7.9,8.1-11.1c-8.5-2.8-16.7-7.9-21.3-15.8
			c-1.1-2.2-2.3-4.4-2.2-6.9c3.8-2,7.2-5.5,8-9.9C27.6,58.3,30,45,32.3,31.7z"/>
		<path class="st3" d="M32.3,31.7c0.4-2.2,2.4-3.6,4.6-3.3c0,0,0,0,0,0c0.6,0.1,1.2,0.4,1.7,0.7c5.1,4.1,10.1,8.3,15.2,12.4
			c0.5,0.3,1,1,1.7,0.6c3.3-1.2,6.6-2,10.1-2.5c4.7-0.5,9.4,0.6,13.8,2.1c0.7,0.2,1.5,0.9,2.2,0.2c5.2-4.2,10.4-8.5,15.6-12.7
			c1.7-1.4,4.3-1.2,5.7,0.5c0,0,0,0,0,0c0.5,0.6,0.8,1.3,0.9,2.1c2.1,12,4.3,24,6.4,36c0.5,2.4,0.6,5.1,2,7.2
			c1.6,2.7,3.9,4.9,6.7,6.3c0.1,2.8-1.4,5.4-2.8,7.8c-4.6,7.5-12.7,12.1-20.8,15c3.8,3.9,7.2,8.3,9,13.6c1.1,3.4,1.2,7.5-1,10.6
			c-1.3,2.1-3.5,3.4-5.7,4.4c0.3,3.4,0.8,6.8,0.9,10.3c2.2,1,3.8,2.9,4.3,5.2c-0.5,0.4-1,0.9-1.7,0.8H72.8c-0.6-1.1-1-2.3-1.6-3.3
			c-1.4-2.3-5.5-2-6.4,0.6c-0.5,1.1-0.8,2.9-2.4,2.7H33.5c0-0.4,0-0.9,0-1.3c0.5-1.2,0.9-2.6,2.1-3.4c0.8-0.5,1.5-1.1,2.2-1.7
			c0.1-3.3,0.5-6.5,1-9.7c-3.1-1.3-6.2-3.6-7.3-7c-0.9-3.6-0.5-7.4,1.1-10.8c2-4.1,4.8-7.9,8.1-11.1c-8.5-2.8-16.7-7.9-21.3-15.8
			c-1.1-2.2-2.3-4.4-2.2-6.9c3.8-2,7.2-5.5,8-9.9C27.6,58.3,30,45,32.3,31.7z M36,31.9c-2.6,13.8-4.9,27.6-7.5,41.4
			c-1,3.6-3.1,6.7-6.1,9c-0.4,0.4-1.1,0.7-1.3,1.3c1,2.4,2.4,4.7,4.1,6.7c5.5,6.5,13.7,10,21.8,12c9.7,2.3,19.7,2.5,29.6,1.9
			c8.7-0.8,17.6-2.5,25.3-6.7c5.7-3.1,10.7-7.9,13.2-14c-2.6-1.8-4.7-4.1-6.2-6.9c-1.6-2.9-1.8-6.2-2.4-9.3
			c-2.1-11.8-4.1-23.6-6.4-35.3c-1.8,1.2-3.5,2.4-5.1,3.9c-3.9,3.2-7.9,6.4-11.8,9.7c-0.6,0.7-1.6,1-2.5,0.7
			c-4.6-1.8-9.6-3.3-14.6-2.8c-4.2,0.2-8.1,2.1-12.1,3.1c-4.9-4.1-9.9-8.1-14.8-12.1C38.3,33.3,37.2,32.5,36,31.9L36,31.9z
			 M44.1,105.9c-3.7,3.4-6.6,7.5-8.7,12.1c2.1,0.2,4.2,0.6,6.3,1.4c1.3-4.6,3-9.2,4.9-13.6C45.8,105.8,44.8,105.2,44.1,105.9z
			 M89.7,105.9c1.9,4.4,3.6,8.8,4.9,13.4c1.9-0.7,3.9-1.2,6-1.3c-1.8-4.9-5.4-8.9-9.1-12.6C90.9,105.6,90.3,105.7,89.7,105.9
			L89.7,105.9z M44.6,122.1c3.6,1,7.2,1.6,10.8,2.6c1.6,0.3,3.2,0.7,4.9,0.9c0.8-2.6,2.9-4.7,5.6-5.5c4-1.2,8.2,0.8,9.8,4.7
			c0.3,1.3,1.6,0.6,2.5,0.5c4.5-1,8.9-2.1,13.4-3.1c-1.3-5.3-3.1-10.6-5.4-15.6c-9.8,1.5-19.8,1.8-29.7,0.9c-2-0.5-4.2-0.6-6.2-1
			C47.9,111.6,46,116.8,44.6,122.1L44.6,122.1z M65.9,123c-2.1,0.9-3.3,3.1-3,5.4c0,3.6,4.4,5.8,7.4,4.3c2.6-1.2,3.9-4.7,2.5-7.2
			C71.6,122.9,68.5,121.8,65.9,123L65.9,123z M43.3,126.7c5,1.2,9.9,2.3,14.9,3.5c1.1,0.2,1.2,1.5,1.7,2.2c1.9,4.1,7.2,5.8,11.3,4.4
			c2.7-0.9,4.8-2.9,5.8-5.6c0.2-1,1.4-1.1,2.2-1.3c4.5-0.9,9-2.2,13.5-3.1c0-0.3,0-0.9-0.1-1.2c-5.5,1-11,2.4-16.4,3.6
			c-0.8,4.4-5.1,7.4-9.6,6.5c-3.3-0.6-5.9-3.2-6.5-6.5c-4.8-1.1-9.6-2.2-14.3-3.3C44.7,125.7,43.4,125.2,43.3,126.7L43.3,126.7z"/>
		<path class="st3" d="M38.9,67.5c1.9-4,6.2-6.4,10.6-6c5.3,0.9,10.4,3.1,15.7,3.8c6.8,0.8,13.1-2.4,19.6-3.7
			c4.4-0.7,8.8,1.4,10.8,5.4c1.6,2.9,1.1,6.3,1.2,9.5c0,3.7,0.1,7.3-0.1,11c-0.4,4.7-3.8,8.7-8.4,9.8c-10.3,2.5-21,3.1-31.6,1.8
			c-4.2-0.6-8.5-1.1-12.5-2.7c-3.5-1.7-5.8-5.1-6.1-9c-0.1-3.5,0-6.9-0.1-10.4C38.1,73.8,37.8,70.5,38.9,67.5z"/>
		<path class="st4" d="M36,31.9c1.2,0.6,2.3,1.4,3.3,2.3c4.9,4.1,9.9,8,14.8,12.1c-2.3,1.2-4.2,3.3-6.9,3.5
			c-1.8-0.6-2.9-2.4-4.6-3.2c-0.9-0.2-1.9-0.3-2.8-0.2c-0.5,7-1,14-0.9,21.1c-1.1,3-0.7,6.3-0.8,9.4c0,3.5-0.1,6.9,0.1,10.4
			c0.3,3.9,2.7,7.3,6.1,9L42.8,97c1.9,1.5,3.7,3.1,5.7,4.4l-1.5,0.8c-8.1-2-16.3-5.5-21.8-12c-1.7-2-3.1-4.3-4.1-6.7
			c0.2-0.6,0.9-0.9,1.3-1.3c3-2.3,5.1-5.4,6.1-9C31.1,59.5,33.4,45.7,36,31.9z"/>
		<path class="st5" d="M47.4,76.6c3.3-0.1,6.9,0.2,9.5,2.5c1.8,1.7,2.6,4.2,2.1,6.6c-3.2-0.3-7,0.8-9.7-1.4
			C47.1,82.4,47.3,79.2,47.4,76.6z"/>
		<path class="st5" d="M48.5,77.3c3.3,0,6.8,1.1,8.8,3.8c0.5,1,1.5,2.7,0.4,3.5c-2.4,0.8-5,0.6-7.2-0.5C48.4,82.6,48,79.7,48.5,77.3
			z"/>
		<path class="st6" d="M44.1,105.9c0.7-0.7,1.6-0.1,2.4-0.1c-2,4.4-3.6,8.9-4.9,13.6c-2-0.8-4.1-1.2-6.2-1.4
			C37.5,113.4,40.5,109.3,44.1,105.9z"/>
		<path class="st7" d="M89.7,105.9c0.6-0.2,1.2-0.3,1.8-0.4c3.7,3.7,7.3,7.6,9.1,12.6c-2.1,0.1-4.1,0.6-6,1.3
			C93.2,114.7,91.6,110.2,89.7,105.9z"/>
		<path class="st8" d="M44.6,122.1c1.4-5.3,3.3-10.5,5.6-15.5c2.1,0.4,4.2,0.5,6.2,1c0.5,0.3,0.9,0.7,1.4,1.1
			c-0.7,4.1-1.7,8.2-2.5,12.2c-0.2,1.3-0.2,2.5,0.1,3.8C51.8,123.7,48.1,123,44.6,122.1z"/>
		<path class="st9" d="M65.9,123c2.6-1.2,5.7-0.1,6.9,2.6c1.5,2.5,0.1,6-2.5,7.2c-3.1,1.4-7.4-0.8-7.4-4.3
			C62.6,126.1,63.8,123.9,65.9,123z"/>
		<path class="st5" d="M85.5,84.4c-2.7,2.3-6.5,1.2-9.7,1.4c-0.5-2.4,0.3-4.9,2.1-6.6c2.6-2.3,6.2-2.6,9.5-2.5
			C87.5,79.3,87.7,82.4,85.5,84.4z M77.5,81.2c-0.5,1-1.5,2.6-0.4,3.5c2.4,0.8,5,0.6,7.2-0.5c2-1.6,2.4-4.4,1.9-6.8
			C83.1,77.4,79.6,78.5,77.5,81.2L77.5,81.2z"/>
		<path class="st5" d="M86.3,77.4c-3.3,0-6.8,1.1-8.8,3.8c-0.5,1-1.5,2.6-0.4,3.5c2.4,0.8,5,0.6,7.2-0.5
			C86.4,82.6,86.8,79.8,86.3,77.4z"/>
	</g>
</g>
<path class="st7" d="M95,120.9c0,0,5.1-1.6,5.8-1.4c1.5,7.7-4.6,9.1-4.6,9.1L95,120.9z"/>
<path class="st7" d="M40.9,120.9c0,0-5.1-1.6-5.8-1.4c-1.5,7.7,4.6,9.1,4.6,9.1L40.9,120.9z"/>
</svg>
